<?xml version="1.0" standalone="no"?>
<!DOCTYPE svg PUBLIC "-//W3C//DTD SVG 20010904//EN"
 "http://www.w3.org/TR/2001/REC-SVG-20010904/DTD/svg10.dtd">
<svg version="1.0" xmlns="http://www.w3.org/2000/svg"
 width="1000.000000pt" height="1000.000000pt" viewBox="0 0 1000.000000 1000.000000"
 preserveAspectRatio="xMidYMid meet">
<metadata>
Created by potrace 1.11, written by Peter Selinger 2001-2013
</metadata>
<g transform="translate(0.000000,1000.000000) scale(0.100000,-0.100000)"
fill="#000000" stroke="none">
<path d="M4658 7505 c-2 -1 -70 -6 -153 -10 -82 -3 -168 -8 -190 -10 -22 -1
-80 -6 -130 -10 -49 -3 -101 -8 -115 -10 -14 -2 -54 -7 -90 -10 -36 -3 -81 -7
-100 -10 -19 -2 -60 -7 -90 -10 -30 -4 -66 -8 -80 -10 -401 -62 -384 -59 -515
-85 -120 -24 -121 -24 -215 -45 -41 -9 -82 -18 -90 -20 -8 -1 -78 -19 -155
-40 -77 -20 -148 -38 -158 -40 -97 -21 -484 -151 -683 -230 -196 -77 -542
-244 -694 -335 -191 -114 -369 -239 -504 -353 -67 -57 -262 -249 -298 -294
-95 -121 -127 -165 -178 -248 -151 -248 -221 -495 -216 -760 5 -215 45 -378
146 -585 129 -262 375 -543 675 -769 286 -216 697 -443 1030 -570 33 -13 74
-29 90 -37 17 -7 64 -25 105 -39 41 -14 84 -30 95 -35 57 -26 542 -170 620
-184 11 -2 47 -11 80 -20 51 -13 210 -48 279 -62 166 -33 362 -67 456 -80 19
-2 49 -6 65 -9 17 -3 50 -7 75 -10 25 -3 63 -8 85 -11 22 -3 51 -7 65 -9 14
-2 54 -7 90 -10 36 -3 81 -8 100 -10 79 -9 252 -21 450 -32 272 -15 984 -8
1190 12 19 2 73 6 120 10 88 6 140 11 225 21 28 3 66 7 85 9 43 4 126 14 160
20 14 3 48 7 75 11 124 15 500 82 585 104 19 5 49 12 65 14 42 8 59 12 155 35
47 12 93 23 102 26 49 11 216 57 238 64 14 5 59 19 100 31 136 40 352 116 505
178 1084 435 1743 1051 1869 1746 18 101 18 340 -1 443 -20 106 -75 269 -128
378 -38 76 -136 238 -154 255 -4 3 -26 32 -51 65 -65 85 -156 182 -295 310
-110 102 -492 375 -524 375 -6 0 -11 4 -11 9 0 5 -8 11 -17 14 -10 4 -58 29
-108 57 -102 57 -330 169 -420 207 -33 14 -73 31 -90 38 -114 49 -342 132
-505 184 -118 37 -366 108 -400 115 -14 2 -32 7 -40 10 -8 3 -26 8 -40 10 -48
9 -73 15 -104 25 -17 6 -47 13 -66 16 -19 3 -62 12 -95 20 -64 14 -314 60
-380 70 -23 3 -52 8 -65 10 -14 3 -45 8 -70 11 -25 3 -56 7 -70 10 -14 2 -45
6 -70 9 -25 3 -60 8 -78 11 -18 2 -54 7 -80 9 -26 3 -63 8 -82 10 -19 2 -69 7
-110 10 -41 3 -88 8 -105 10 -16 2 -82 7 -145 10 -63 4 -140 9 -170 12 -59 5
-846 13 -852 8z m882 -329 c41 -3 105 -8 141 -10 37 -3 91 -8 120 -11 138 -14
176 -18 204 -21 17 -3 50 -7 75 -9 25 -3 59 -7 76 -9 106 -14 196 -28 239 -37
28 -5 64 -11 80 -13 24 -4 291 -57 355 -71 104 -23 357 -89 420 -110 25 -8
110 -35 190 -61 296 -95 658 -252 895 -390 816 -471 1193 -1077 1050 -1689
-86 -371 -379 -740 -830 -1043 -55 -37 -108 -71 -117 -77 -229 -133 -422 -229
-633 -315 -71 -29 -139 -56 -150 -61 -99 -44 -499 -165 -720 -219 -141 -34
-136 -33 -245 -55 -84 -16 -113 -22 -153 -31 -16 -3 -38 -7 -50 -9 -12 -2 -80
-12 -152 -24 -71 -11 -150 -23 -174 -26 -23 -3 -55 -7 -70 -9 -14 -3 -53 -8
-86 -11 -33 -3 -73 -8 -90 -10 -16 -2 -64 -7 -105 -10 -41 -3 -91 -8 -110 -10
-206 -20 -966 -28 -1210 -12 -185 12 -231 15 -295 22 -33 3 -82 8 -110 11 -27
3 -70 7 -95 10 -25 4 -56 7 -70 9 -49 6 -125 16 -150 20 -14 2 -45 7 -70 10
-25 3 -58 8 -75 12 -16 3 -39 7 -50 9 -78 10 -371 71 -525 109 -742 183 -1364
464 -1800 812 -81 64 -276 252 -333 320 -54 65 -156 220 -195 298 -44 87 -110
272 -118 333 -13 94 -15 289 -4 363 97 669 818 1282 1949 1659 227 75 598 176
751 203 14 3 63 12 110 21 47 8 99 18 115 21 17 2 41 7 55 10 14 3 45 8 70 11
25 3 52 7 60 9 8 2 33 6 55 9 22 3 60 8 85 12 67 9 84 11 153 18 34 4 78 9 97
11 42 6 150 16 205 20 22 1 94 6 160 10 66 4 122 9 124 10 5 6 870 -2 951 -9z"/>
<path d="M1766 6271 c-10 -15 -2 -140 8 -144 6 -2 30 -3 53 -2 29 1 49 -4 62
-16 18 -17 19 -49 19 -1184 0 -1044 1 -1169 15 -1183 14 -13 58 -15 327 -15
279 0 312 2 329 17 18 17 19 39 19 518 0 275 4 504 9 509 11 11 50 1 56 -15 4
-9 260 -370 486 -686 34 -47 90 -125 126 -175 35 -49 71 -100 80 -113 40 -55
36 -55 431 -55 336 0 366 2 384 18 11 10 20 24 20 30 0 13 -50 89 -160 244
-153 215 -497 701 -539 761 -25 36 -80 114 -123 175 -43 60 -78 119 -78 131 0
12 8 32 18 45 10 13 103 150 207 304 548 812 526 779 520 805 -4 14 -12 28
-18 32 -6 4 -168 7 -359 6 -339 0 -349 -1 -380 -22 -17 -11 -68 -73 -113 -136
-45 -63 -179 -253 -298 -421 -119 -169 -223 -309 -230 -312 -37 -14 -38 0 -38
429 0 341 -3 423 -14 441 -14 21 -15 21 -415 21 -220 0 -402 -3 -404 -7z"/>
<path d="M4509 6257 c0 -12 -1 -46 -2 -75 -2 -40 1 -52 13 -53 8 -1 29 -2 45
-3 50 -3 75 -16 77 -39 0 -12 2 -541 2 -1175 2 -1051 3 -1154 18 -1168 15 -15
54 -17 339 -17 308 0 323 1 338 20 15 17 16 143 16 1261 0 1002 -3 1244 -13
1254 -10 10 -103 13 -422 15 l-410 2 -1 -22z"/>
<path d="M6456 6272 c-9 -8 -7 -142 2 -143 4 -1 29 -2 55 -4 47 -2 81 -26 73
-50 -2 -5 -74 -221 -161 -480 -322 -958 -527 -1570 -529 -1580 -1 -5 -4 -14
-7 -20 -3 -5 -21 -56 -39 -113 -27 -85 -31 -107 -22 -127 9 -19 20 -25 44 -26
151 -3 597 1 613 6 29 9 41 32 71 128 14 45 27 88 29 95 3 7 5 14 5 17 0 3 8
24 16 47 8 24 42 126 74 228 32 102 106 336 165 520 59 184 125 396 149 470
34 110 45 136 62 138 17 2 25 -15 66 -140 169 -526 201 -623 202 -632 1 -6 42
-132 90 -281 186 -574 185 -571 211 -585 35 -19 637 -19 660 0 21 17 19 36
-12 132 -15 46 -27 85 -28 88 -1 3 -4 12 -8 20 -8 21 -287 852 -292 870 -2 8
-109 328 -237 710 -203 604 -237 696 -258 707 -17 8 -152 12 -506 11 -266 0
-485 -3 -488 -6z"/>
</g>
</svg>
